<?xml version="1.0" encoding="utf-8"?>
<!-- Generator: Adobe Illustrator 18.0.0, SVG Export Plug-In . SVG Version: 6.00 Build 0)  -->
<!DOCTYPE svg PUBLIC "-//W3C//DTD SVG 1.1//EN" "http://www.w3.org/Graphics/SVG/1.1/DTD/svg11.dtd">
<svg version="1.1" id="Layer_1" xmlns="http://www.w3.org/2000/svg" xmlns:xlink="http://www.w3.org/1999/xlink" x="0px" y="0px"
	 viewBox="0 0 150 170" enable-background="new 0 0 150 170" xml:space="preserve">
<path fill="#FFFFFF" d="M94.7,96.3l1.9-0.5c18.8-6.7,32.2-22.1,32.2-43.3c0-30.1-24.1-46.7-59.7-46.7h-63v19.5h8.2h8.8h4.3
	l18.1,30.5L61.8,83H23.8v18.5v43.1H6.2v19.5h60.6v-19.5h-21v-43.1h12.4h3.6h10.6h0.5l37.5,62.6h33.4v-19.5h-18.5L94.7,96.3z
	 M49.7,25.3h4.9h13.4c23.3,0,38.5,9.4,38.5,27.9c0,13.6-8.6,23-21.8,27.3L49.7,25.3z"/>
</svg>
