<?xml version="1.0" encoding="utf-8"?>
<!-- Generator: Adobe Illustrator 18.0.0, SVG Export Plug-In . SVG Version: 6.00 Build 0)  -->
<!DOCTYPE svg PUBLIC "-//W3C//DTD SVG 1.1//EN" "http://www.w3.org/Graphics/SVG/1.1/DTD/svg11.dtd">
<svg version="1.1" id="Layer_1" xmlns="http://www.w3.org/2000/svg" xmlns:xlink="http://www.w3.org/1999/xlink" x="0px" y="0px"
	 viewBox="0 0 255 60" enable-background="new 0 0 255 60" xml:space="preserve">
<g>
	<g>
		<polygon fill="#FFFFFF" points="1.9,54.7 67.3,54.7 67.3,53.4 1.9,53.4 		"/>
		<polygon fill="#FFFFFF" points="185.9,54.7 253.1,54.7 253.1,53.4 185.9,53.4 		"/>
		<polygon fill="#FFFFFF" points="63.1,28.3 58.4,28.3 58.4,33.3 46,33.3 46,21.5 57.4,21.5 57.4,17.2 46,17.2 46,6.1 58.4,6.1 
			58.4,11.1 63,11.1 63,1.8 36.7,1.8 36.7,6.2 41,6.2 41,33.2 36.7,33.2 36.7,37.8 63.1,37.8 		"/>
		<polygon fill="#FFFFFF" points="77.4,22.2 88.5,22.2 88.5,17.9 77.4,17.9 77.4,6.1 89.3,6.1 89.3,11.1 94.1,11.1 94.1,1.8 68,1.8 
			68,6.2 72.4,6.2 72.4,33.2 68,33.2 68,37.8 82.2,37.8 82.2,33.2 77.4,33.2 		"/>
		<polygon fill="#FFFFFF" points="112.5,33.2 107.9,33.2 107.9,22.1 110.3,22.1 110.3,17.9 107.9,17.9 107.9,6.2 112.5,6.2 
			112.5,1.8 98.2,1.8 98.2,6.2 102.9,6.2 102.9,17.9 100.4,17.9 100.4,22.1 102.9,22.1 102.9,33.2 98.2,33.2 98.2,37.8 112.5,37.8 
					"/>
		<polygon fill="#FFFFFF" points="140.1,6.2 144.7,6.2 144.7,27.1 125.2,1.8 116.6,1.8 116.6,6.2 121,6.2 121,33.2 116.6,33.2 
			116.6,37.8 130.4,37.8 130.4,33.2 125.8,33.2 125.8,10.5 146.8,37.8 149.5,37.8 149.5,6.2 153.7,6.2 153.7,1.8 140.1,1.8 		"/>
		<polygon fill="#FFFFFF" points="179.3,33.3 167,33.3 167,21.5 178.4,21.5 178.4,17.2 167,17.2 167,6.1 179.3,6.1 179.3,11.1 
			184,11.1 184,1.8 157.6,1.8 157.6,6.2 162,6.2 162,33.2 157.6,33.2 157.6,37.8 184.1,37.8 184.1,28.3 179.3,28.3 		"/>
		<polygon fill="#FFFFFF" points="240.4,1.8 240.4,6.2 244,6.2 236.5,19.4 229,6.2 232.5,6.2 232.5,1.8 219.7,1.8 219.7,6.2 
			223.5,6.2 233.9,23.6 233.9,33.2 229.1,33.2 229.1,37.8 243.8,37.8 243.8,33.2 238.9,33.2 238.9,23.5 249.3,6.2 253.1,6.2 
			253.1,1.8 		"/>
		<path fill="#FFFFFF" d="M15.6,33.6h-4.8v-9.8h2.8h0.8h2.4H17l8.5,14h7.6v-4.2h-4.2l-7-11l0.4-0.1c4.3-1.5,7.3-5,7.3-9.8
			c0-6.8-5.5-10.8-13.5-10.8H1.9v4.7h1.9h2h1l4.1,6.9l3.7,6.2H5.9v4.2v9.8h-4v4.2h13.8V33.6z M11.8,6.5h1.1h3c5.3,0,8.7,2.1,8.7,6.3
			c0,3.1-1.9,5.2-4.9,6.2L11.8,6.5z"/>
		<path fill="#FFFFFF" d="M202.5,33.6h-4.8v-9.8h2.8h0.8h2.4h0.1l8.5,14h7.6v-4.2h-4.2l-7-11l0.4-0.1c4.3-1.5,7.3-5,7.3-9.8
			c0-6.8-5.5-10.8-13.5-10.8h-14.3v4.7h1.9h2h1l4.1,6.9l3.7,6.2h-8.6v4.2v9.8h-4v4.2h13.8V33.6z M198.6,6.5h1.1h3
			c5.3,0,8.7,2.1,8.7,6.3c0,3.1-1.9,5.2-4.9,6.2L198.6,6.5z"/>
		<polygon fill="#FFFFFF" points="78.2,51.3 79.2,51.3 79.2,53.4 75.5,53.4 75.5,51.3 76.5,51.3 76.5,50 73.2,50 73.2,51.3 
			74.2,51.3 74.2,56.8 73.2,56.8 73.2,58.1 76.5,58.1 76.5,56.8 75.5,56.8 75.5,54.6 79.2,54.6 79.2,56.8 78.2,56.8 78.2,58.1 
			81.5,58.1 81.5,56.8 80.6,56.8 80.6,51.3 81.5,51.3 81.5,50 78.2,50 		"/>
		<polygon fill="#FFFFFF" points="82.8,51.3 83.8,51.3 83.8,56.8 82.8,56.8 82.8,58.1 86.1,58.1 86.1,56.8 85.1,56.8 85.1,51.3 
			86.1,51.3 86.1,50 82.8,50 		"/>
		<path fill="#FFFFFF" d="M91.1,55.1h2v1.4C92.6,56.8,92,57,91.2,57c-1.4,0-2.6-1.1-2.6-2.9c0-1.7,1.2-2.9,2.8-2.9
			c0.7,0,1.2,0.2,1.4,0.4c0,0.1-0.1,0.3-0.1,0.4c0,0.5,0.4,0.9,0.9,0.9c0.5,0,0.9-0.4,0.9-1c0-1-1.2-1.9-3.1-1.9
			c-2.3,0-4.2,1.7-4.2,4.2c0,2.6,1.9,4.1,3.9,4.1c0.9,0,1.6-0.3,2.2-0.7v0.6h1.3v-4.2h-3.4V55.1z"/>
		<polygon fill="#FFFFFF" points="101,51.3 102,51.3 102,53.4 98.3,53.4 98.3,51.3 99.3,51.3 99.3,50 96,50 96,51.3 97,51.3 
			97,56.8 96,56.8 96,58.1 99.3,58.1 99.3,56.8 98.3,56.8 98.3,54.6 102,54.6 102,56.8 101,56.8 101,58.1 104.3,58.1 104.3,56.8 
			103.4,56.8 103.4,51.3 104.3,51.3 104.3,50 101,50 		"/>
		<polygon fill="#FFFFFF" points="112.8,56.8 110.5,56.8 110.5,54.6 112.9,54.6 112.9,53.4 110.5,53.4 110.5,51.3 112.8,51.3 
			112.8,52.3 114.2,52.3 114.2,50 108.2,50 108.2,51.3 109.1,51.3 109.1,56.8 108.2,56.8 108.2,58.1 114.2,58.1 114.2,55.8 
			112.8,55.8 		"/>
		<polygon fill="#FFFFFF" points="120.6,51.3 121.6,51.3 121.6,55.1 117.6,50 115.5,50 115.5,51.3 116.5,51.3 116.5,56.8 
			115.5,56.8 115.5,58.1 118.8,58.1 118.8,56.8 117.8,56.8 117.8,52.5 122.2,58.1 122.9,58.1 122.9,51.3 123.8,51.3 123.8,50 
			120.6,50 		"/>
		<path fill="#FFFFFF" d="M127.9,50h-3v1.2h0.9v5.6h-0.9v1.2h2.9c3.1,0,4.8-1.6,4.8-4.1C132.5,51.6,130.8,50,127.9,50z M128,56.8
			h-0.8v-5.6h0.7c2,0,3.2,1,3.2,2.7C131.1,55.7,130,56.8,128,56.8z"/>
		<path fill="#FFFFFF" d="M140.8,56.9c-1.7,0-2.8-1.3-2.8-2.9c0-1.7,1.2-2.9,2.8-2.9c0.7,0,1.2,0.2,1.4,0.4c0,0.1-0.1,0.3-0.1,0.4
			c0,0.5,0.4,0.9,0.9,0.9c0.5,0,0.9-0.4,0.9-1c0-1-1.2-1.9-3.1-1.9c-2.3,0-4.2,1.7-4.2,4.2c0,2.5,1.8,4.2,4.2,4.2
			c1.3,0,2.4-0.5,3.2-1.4l-0.9-1C142.5,56.5,141.8,56.9,140.8,56.9z"/>
		<path fill="#FFFFFF" d="M149.2,49.9c-2.4,0-4.1,1.8-4.1,4.2c0,2.3,1.7,4.2,4.1,4.2c2.4,0,4.1-1.8,4.1-4.2
			C153.3,51.7,151.6,49.9,149.2,49.9z M149.2,56.9c-1.6,0-2.7-1.2-2.7-2.9c0-1.7,1.1-2.9,2.7-2.9c1.5,0,2.7,1.2,2.7,2.9
			C151.8,55.7,150.7,56.9,149.2,56.9z"/>
		<polygon fill="#FFFFFF" points="154.3,51.3 155.2,51.3 155.2,56.8 154.3,56.8 154.3,58.1 157.7,58.1 157.7,56.8 156.6,56.8 
			156.6,54.7 159,54.7 159,53.6 156.6,53.6 156.6,51.3 158.9,51.3 158.9,52.3 160.2,52.3 160.2,50 154.3,50 		"/>
		<polygon fill="#FFFFFF" points="161.4,51.3 162.3,51.3 162.3,56.8 161.4,56.8 161.4,58.1 164.7,58.1 164.7,56.8 163.6,56.8 
			163.6,54.7 166,54.7 166,53.6 163.6,53.6 163.6,51.3 165.9,51.3 165.9,52.3 167.3,52.3 167.3,50 161.4,50 		"/>
		<polygon fill="#FFFFFF" points="173.1,56.8 170.7,56.8 170.7,54.6 173.1,54.6 173.1,53.4 170.7,53.4 170.7,51.3 173,51.3 
			173,52.3 174.4,52.3 174.4,50 168.4,50 168.4,51.3 169.3,51.3 169.3,56.8 168.4,56.8 168.4,58.1 174.4,58.1 174.4,55.8 
			173.1,55.8 		"/>
		<polygon fill="#FFFFFF" points="180.4,56.8 178.1,56.8 178.1,54.6 180.5,54.6 180.5,53.4 178.1,53.4 178.1,51.3 180.4,51.3 
			180.4,52.3 181.7,52.3 181.7,50 175.8,50 175.8,51.3 176.7,51.3 176.7,56.8 175.8,56.8 175.8,58.1 181.8,58.1 181.8,55.8 
			180.4,55.8 		"/>
	</g>
</g>
</svg>
