<?xml version="1.0" encoding="utf-8"?>
<!-- Generator: Adobe Illustrator 18.0.0, SVG Export Plug-In . SVG Version: 6.00 Build 0)  -->
<!DOCTYPE svg PUBLIC "-//W3C//DTD SVG 1.1//EN" "http://www.w3.org/Graphics/SVG/1.1/DTD/svg11.dtd">
<svg version="1.1" id="Layer_1" xmlns="http://www.w3.org/2000/svg" xmlns:xlink="http://www.w3.org/1999/xlink" x="0px" y="0px"
	 viewBox="0 0 1440 900" enable-background="new 0 0 1440 900" xml:space="preserve">
<path fill="#231F20" d="M824.3,509.8l10.1-2.6c99.5-35.5,170.5-117,170.5-229.2c0-159.4-127.6-247.2-316.1-247.2H355.2v103.2h43.4
	h46.6H468l95.8,161.5l86.3,144H448.9v97.9v228.2h-93.2v103.2h320.8V765.5H565.4V537.4h65.6h19.1h56.1h2.6l198.5,331.4h176.8V765.5
	h-97.9L824.3,509.8z M586.1,133.9H612h70.9c123.4,0,203.8,49.8,203.8,147.7c0,72-45.5,121.8-115.4,144.5L586.1,133.9z"/>
</svg>
