<?xml version="1.0" encoding="utf-8"?>
<!-- Generator: Adobe Illustrator 18.0.0, SVG Export Plug-In . SVG Version: 6.00 Build 0)  -->
<!DOCTYPE svg PUBLIC "-//W3C//DTD SVG 1.1//EN" "http://www.w3.org/Graphics/SVG/1.1/DTD/svg11.dtd">
<svg version="1.1" id="Layer_1" xmlns="http://www.w3.org/2000/svg" xmlns:xlink="http://www.w3.org/1999/xlink" x="0px" y="0px"
	 viewBox="0 0 145 25" enable-background="new 0 0 145 25" xml:space="preserve">
<g>
	<g>
		<polygon fill="#FFFFFF" points="36.7,17.2 34.1,17.2 34.1,20 27.2,20 27.2,13.4 33.5,13.4 33.5,11.1 27.2,11.1 27.2,4.9 34.1,4.9 
			34.1,7.7 36.7,7.7 36.7,2.5 22,2.5 22,4.9 24.5,4.9 24.5,20 22,20 22,22.5 36.7,22.5 		"/>
		<polygon fill="#FFFFFF" points="44.7,13.8 50.8,13.8 50.8,11.4 44.7,11.4 44.7,4.9 51.3,4.9 51.3,7.7 53.9,7.7 53.9,2.5 39.5,2.5 
			39.5,4.9 41.9,4.9 41.9,20 39.5,20 39.5,22.5 47.4,22.5 47.4,20 44.7,20 		"/>
		<polygon fill="#FFFFFF" points="64.2,20 61.6,20 61.6,13.8 62.9,13.8 62.9,11.4 61.6,11.4 61.6,4.9 64.2,4.9 64.2,2.5 56.2,2.5 
			56.2,4.9 58.9,4.9 58.9,11.4 57.5,11.4 57.5,13.8 58.9,13.8 58.9,20 56.2,20 56.2,22.5 64.2,22.5 		"/>
		<polygon fill="#FFFFFF" points="79.5,4.9 82,4.9 82,16.5 71.2,2.5 66.5,2.5 66.5,4.9 68.9,4.9 68.9,20 66.5,20 66.5,22.5 
			74.1,22.5 74.1,20 71.6,20 71.6,7.4 83.2,22.5 84.7,22.5 84.7,4.9 87.1,4.9 87.1,2.5 79.5,2.5 		"/>
		<polygon fill="#FFFFFF" points="101.3,20 94.4,20 94.4,13.4 100.7,13.4 100.7,11.1 94.4,11.1 94.4,4.9 101.3,4.9 101.3,7.7 
			103.9,7.7 103.9,2.5 89.2,2.5 89.2,4.9 91.7,4.9 91.7,20 89.2,20 89.2,22.5 103.9,22.5 103.9,17.2 101.3,17.2 		"/>
		<polygon fill="#FFFFFF" points="135.2,2.5 135.2,4.9 137.2,4.9 133,12.3 128.9,4.9 130.8,4.9 130.8,2.5 123.7,2.5 123.7,4.9 
			125.8,4.9 131.6,14.6 131.6,20 128.9,20 128.9,22.5 137.1,22.5 137.1,20 134.4,20 134.4,14.6 140.2,4.9 142.3,4.9 142.3,2.5 		"/>
		<path fill="#FFFFFF" d="M10.4,20.1H7.7v-5.4h1.6h0.5h1.3h0.1l4.7,7.8h4.2v-2.4h-2.3L13.9,14l0.2-0.1c2.4-0.8,4.1-2.8,4.1-5.5
			c0-3.8-3-6-7.5-6H2.7v2.6h1h1.1h0.5l2.3,3.8l2,3.4H5v2.3v5.4H2.7v2.4h7.6V20.1z M8.2,5.1h0.6h1.7c2.9,0,4.9,1.2,4.9,3.5
			c0,1.7-1.1,2.9-2.7,3.4L8.2,5.1z"/>
		<path fill="#FFFFFF" d="M114.1,20.1h-2.6v-5.4h1.6h0.5h1.3h0.1l4.7,7.8h4.2v-2.4h-2.3l-3.9-6.1l0.2-0.1c2.4-0.8,4.1-2.8,4.1-5.5
			c0-3.8-3-6-7.5-6h-7.9v2.6h1h1.1h0.5l2.3,3.8l2,3.4h-4.8v2.3v5.4h-2.2v2.4h7.6V20.1z M112,5.1h0.6h1.7c2.9,0,4.9,1.2,4.9,3.5
			c0,1.7-1.1,2.9-2.7,3.4L112,5.1z"/>
	</g>
</g>
</svg>
